<svg width="85" height="60" viewBox="0 0 85 60" xmlns="http://www.w3.org/2000/svg" xmlns:xlink="http://www.w3.org/1999/xlink"><title>ic-paytm</title><defs><path id="a" d="M42.06.47h9.856v22.492H42.06V.47z"/><path id="c" d="M.501 4.089v18.779h12.23V4.088z"/></defs><g transform="translate(6 19)" fill="none" fill-rule="evenodd"><path d="M73.402 6.944c-.662-1.863-2.466-3.2-4.587-3.2h-.044c-1.377 0-2.62.565-3.504 1.47a4.882 4.882 0 0 0-3.504-1.47h-.044a4.886 4.886 0 0 0-3.169 1.158v-.365a.712.712 0 0 0-.712-.655h-3.252a.714.714 0 0 0-.718.709v17.368c0 .391.322.708.718.708h3.252c.362 0 .66-.266.708-.611l-.002-12.467c0-.043.002-.084.006-.126.053-.556.467-1.014 1.122-1.07h.599c.274.023.506.118.686.26.283.223.442.563.44.936l.013 12.406c0 .391.323.708.719.708h3.251a.713.713 0 0 0 .716-.674l-.003-12.456a1.166 1.166 0 0 1 .53-1c.166-.106.366-.177.597-.197h.6c.703.061 1.128.584 1.127 1.197l.012 12.39c0 .39.323.707.72.707h3.25a.713.713 0 0 0 .72-.708V8.637c0-.908-.105-1.296-.247-1.693" fill="#00B4F5"/><mask id="b" fill="#fff"><use xlink:href="#a"/></mask><path d="M51.197 4.089h-1.859V1.117a.652.652 0 0 0-.78-.632c-2.063.555-1.648 3.365-5.412 3.604h-.367a.75.75 0 0 0-.157.018h-.003.002a.71.71 0 0 0-.561.689v3.197c0 .392.322.709.72.709h1.961l-.002 13.56c0 .387.319.7.71.7h3.215c.392 0 .71-.313.71-.7l.002-13.56h1.821a.713.713 0 0 0 .719-.709V4.796a.713.713 0 0 0-.719-.707" fill="#00B4F5" mask="url(#b)"/><path d="M39.499 4.089h-3.25a.713.713 0 0 0-.72.707v6.613a.756.756 0 0 1-.76.738h-1.362a.756.756 0 0 1-.762-.75l-.014-6.601a.714.714 0 0 0-.719-.707h-3.25a.713.713 0 0 0-.72.707v7.247c0 2.754 1.996 4.715 4.797 4.715 0 0 2.101 0 2.166.013a.75.75 0 0 1 .675.74.75.75 0 0 1-.665.74l-.054.008-4.756.018a.713.713 0 0 0-.718.707v3.197c0 .391.322.707.718.707h5.317c2.8 0 4.796-1.962 4.796-4.715V4.796a.714.714 0 0 0-.719-.707" fill="#223E99"/><mask id="d" fill="#fff"><use xlink:href="#c"/></mask><path d="M8.028 9.949v1.973c0 .414-.342.75-.762.75l-2.063.002V8.72h2.063c.42 0 .762.335.762.749v.48zm.285-5.86H1.206a.7.7 0 0 0-.705.693v3.133l.002.018-.002.045v14.18c0 .387.294.7.657.71h3.313c.397 0 .72-.317.72-.708l.012-4.861h3.11c2.604 0 4.418-1.775 4.418-4.347v-4.51c0-2.571-1.814-4.353-4.418-4.353z" fill="#223E99" mask="url(#d)"/><path d="M21 4.107c3.686 0 5.229 1.858 5.229 4.8v12.135c0 .97-.859 1.758-1.916 1.758h-5.896c-2.81 0-4.543-1.837-4.543-4.417v-3.721c0-2.595 2.016-4.444 4.846-4.444h2.126c.325-.03.59-.295.63-.657v-.413a.739.739 0 0 0-.647-.675l-4.296-.001c-.423 0-.766-.315-.766-.703V6.064c0-.009.002-.017.003-.025 0-.009-.003-.017-.003-.025V4.77c0-.365.324-.663.722-.663H21zm.518 13.35v-2.235c0-.388-.343-.703-.767-.703H19.4c-.422 0-.764.313-.766.7v.506l-.002 1.605.001.022v.604c0 .388.344.704.767.704h1.352a.762.762 0 0 0 .724-.482.679.679 0 0 0 .043-.222v-.5z" fill="#223E99"/></g></svg>